<svg width="75" height="70" viewBox="0 0 75 70" fill="none" xmlns="http://www.w3.org/2000/svg">
<rect width="70" height="70" rx="35" fill="#E5F3FF"/>
<g filter="url(#filter0_d_29267_12042)">
<path d="M30.7087 21.875C34.2822 21.875 37.5185 23.3338 39.8666 25.6942C40.0833 25.9121 40.3877 26.0171 40.6912 25.9798C41.1741 25.9204 41.6665 25.8898 42.1665 25.8898C45.7794 25.8898 48.9964 27.4868 51.0661 29.9726C51.2948 30.2474 51.6503 30.381 52.0025 30.3336C52.342 30.288 52.6889 30.2643 53.0417 30.2643C57.0918 30.2643 60.375 33.3752 60.375 37.2128C60.375 41.0503 57.0918 44.1612 53.0417 44.1613C52.3556 44.1613 51.6915 44.0719 51.0616 43.9049C50.7199 43.8143 50.3529 43.9002 50.0925 44.1414C48.0522 46.032 45.254 47.1985 42.1665 47.1985C40.6485 47.1985 39.2004 46.9164 37.8779 46.405C37.6015 46.2981 37.2918 46.3198 37.0335 46.4657C35.1619 47.5226 33.0049 48.125 30.7087 48.125C28.2018 48.125 25.8609 47.4069 23.8762 46.1634C23.4953 45.9248 23.0013 45.9715 22.6573 46.2617C21.2791 47.4246 19.5054 48.1247 17.5696 48.1247C13.182 48.1247 9.62503 44.5299 9.625 40.0954C9.625 35.6609 13.1819 32.066 17.5696 32.066C17.844 32.066 18.0883 31.8812 18.1589 31.6132C19.6365 26.0059 24.6953 21.875 30.7087 21.875Z" fill="white"/>
<path d="M24.94 29.8925C24.94 30.4034 24.5302 30.8176 24.0247 30.8176C23.5192 30.8176 23.1093 30.4034 23.1093 29.8925C23.1093 29.3816 23.5192 28.9674 24.0247 28.9674C24.5302 28.9674 24.94 29.3816 24.94 29.8925Z" fill="#202020"/>
<path d="M29.059 29.1216C29.059 29.6325 28.6492 30.0467 28.1436 30.0467C27.6381 30.0467 27.2283 29.6325 27.2283 29.1216C27.2283 28.6107 27.6381 28.1965 28.1436 28.1965C28.6492 28.1965 29.059 28.6107 29.059 29.1216Z" fill="#202020"/>
<path d="M24.3675 32.4345C24.544 32.2075 24.8646 32.1621 25.0953 32.3269L25.1173 32.3434L25.1768 32.3886C25.4875 32.6152 25.9985 32.8462 26.561 32.8408C27.1275 32.8353 27.8101 32.5906 28.4529 31.7036L28.4698 31.6817C28.648 31.4602 28.9688 31.4166 29.1992 31.5872C29.4371 31.7633 29.4887 32.101 29.3145 32.3414L29.2363 32.4464C28.4245 33.5104 27.468 33.9112 26.5712 33.9199C25.7348 33.9281 25.0048 33.5955 24.5458 33.2594L24.4577 33.1923L24.4365 33.1745C24.2235 32.9871 24.1911 32.6616 24.3675 32.4345Z" fill="#202020"/>
</g>
<defs>
<filter id="filter0_d_29267_12042" x="3.625" y="15.875" width="70.75" height="46.25" filterUnits="userSpaceOnUse" color-interpolation-filters="sRGB">
<feFlood flood-opacity="0" result="BackgroundImageFix"/>
<feColorMatrix in="SourceAlpha" type="matrix" values="0 0 0 0 0 0 0 0 0 0 0 0 0 0 0 0 0 0 127 0" result="hardAlpha"/>
<feOffset dx="4" dy="4"/>
<feGaussianBlur stdDeviation="5"/>
<feComposite in2="hardAlpha" operator="out"/>
<feColorMatrix type="matrix" values="0 0 0 0 0.240404 0 0 0 0 0.618659 0 0 0 0 0.949632 0 0 0 0.04 0"/>
<feBlend mode="normal" in2="BackgroundImageFix" result="effect1_dropShadow_29267_12042"/>
<feBlend mode="normal" in="SourceGraphic" in2="effect1_dropShadow_29267_12042" result="shape"/>
</filter>
</defs>
</svg>
