<svg width="24" height="24" viewBox="0 0 24 24" fill="none" xmlns="http://www.w3.org/2000/svg">
<path d="M17.7783 15.6026L15.097 12.9394C15.2356 12.7191 15.343 12.4611 15.4192 12.1652C15.4954 11.8692 15.5335 11.5699 15.5335 11.2671C15.5335 10.2899 15.1905 9.46065 14.5046 8.77936C13.8187 8.09806 12.9838 7.75742 12 7.75742C11.6952 7.75742 11.3972 7.79183 11.1062 7.86065C10.8152 7.92946 10.552 8.03957 10.3164 8.19097L8.03002 5.89935C8.51501 5.67914 9.1351 5.48645 9.8903 5.32129C10.6455 5.15613 11.3834 5.07355 12.1039 5.07355C13.9746 5.07355 15.6998 5.5828 17.2794 6.60129C18.8591 7.61979 20.0647 8.98925 20.8961 10.7097C20.9376 10.7785 20.9654 10.8611 20.9792 10.9574C20.9931 11.0538 21 11.157 21 11.2671C21 11.3772 20.9931 11.4839 20.9792 11.5871C20.9654 11.6903 20.9376 11.7763 20.8961 11.8452C20.5358 12.6022 20.0924 13.2972 19.5658 13.9303C19.0393 14.5634 18.4434 15.1209 17.7783 15.6026ZM18.5266 19.8142L15.4919 16.8619C15.0069 17.0546 14.4596 17.2026 13.8499 17.3058C13.2402 17.409 12.6236 17.4606 12 17.4606C10.0878 17.4606 8.33487 16.9514 6.74134 15.9329C5.14781 14.9144 3.93533 13.5449 3.10393 11.8245C3.06236 11.7419 3.03464 11.6559 3.02079 11.5665C3.00693 11.477 3 11.3772 3 11.2671C3 11.157 3.01039 11.0503 3.03118 10.9471C3.05196 10.8439 3.07621 10.7578 3.10393 10.689C3.39492 10.0697 3.76559 9.46753 4.21594 8.88258C4.66628 8.29763 5.1963 7.74366 5.806 7.22065L3.62356 5.0529C3.49885 4.92903 3.43649 4.78452 3.43649 4.61935C3.43649 4.45419 3.49885 4.30968 3.62356 4.18581C3.74827 4.06194 3.89723 4 4.07044 4C4.24365 4 4.39261 4.06194 4.51732 4.18581L19.3995 18.9677C19.5104 19.0779 19.5658 19.212 19.5658 19.3703C19.5658 19.5286 19.5104 19.6697 19.3995 19.7935C19.2887 19.9312 19.1467 20 18.9734 20C18.8002 20 18.6513 19.9381 18.5266 19.8142ZM12 14.7768C12.194 14.7768 12.4018 14.7596 12.6236 14.7252C12.8453 14.6908 13.0323 14.6391 13.1848 14.5703L8.67437 10.0903C8.60508 10.2555 8.55312 10.4413 8.51848 10.6477C8.48383 10.8542 8.46651 11.0606 8.46651 11.2671C8.46651 12.2581 8.81293 13.0908 9.50577 13.7652C10.1986 14.4396 11.03 14.7768 12 14.7768ZM14.1824 12.031L11.2309 9.09936C12.0901 8.7828 12.8868 8.94796 13.6212 9.59484C14.3557 10.2417 14.5427 11.0538 14.1824 12.031Z" fill="#1F1F22"/>
</svg>
