<svg width="24" height="24" viewBox="0 0 24 24" fill="none" xmlns="http://www.w3.org/2000/svg">
<path d="M2.34398 15.271L4.34398 18.731C4.47676 18.9605 4.69525 19.1279 4.95141 19.1963C5.20757 19.2648 5.48042 19.2287 5.70998 19.096L7.10598 18.29C7.68598 18.747 8.32698 19.122 9.00098 19.402V21C9.00098 21.2652 9.10634 21.5196 9.29388 21.7071C9.48141 21.8946 9.73577 22 10.001 22H14.001C14.2662 22 14.5206 21.8946 14.7081 21.7071C14.8956 21.5196 15.001 21.2652 15.001 21V19.402C15.6803 19.1192 16.3178 18.7451 16.896 18.29L18.292 19.096C18.769 19.371 19.383 19.206 19.658 18.731L21.658 15.271C21.7896 15.0412 21.8251 14.7687 21.7567 14.5129C21.6884 14.257 21.5217 14.0385 21.293 13.905L19.921 13.112C20.0282 12.3745 20.0275 11.6253 19.919 10.888L21.291 10.095C21.767 9.82 21.932 9.205 21.656 8.729L19.656 5.269C19.5232 5.0395 19.3047 4.87212 19.0486 4.80367C18.7924 4.73523 18.5195 4.77131 18.29 4.904L16.894 5.71C16.3165 5.25438 15.6792 4.88022 15 4.598V3C15 2.73478 14.8946 2.48043 14.7071 2.29289C14.5196 2.10536 14.2652 2 14 2H9.99998C9.73477 2 9.48041 2.10536 9.29288 2.29289C9.10534 2.48043 8.99998 2.73478 8.99998 3V4.598C8.32071 4.88081 7.68317 5.25492 7.10498 5.71L5.70998 4.904C5.59635 4.83817 5.47085 4.79539 5.34067 4.7781C5.21049 4.76082 5.07818 4.76937 4.9513 4.80327C4.82443 4.83717 4.70549 4.89576 4.60128 4.97567C4.49707 5.05559 4.40963 5.15526 4.34398 5.269L2.34398 8.729C2.21237 8.9588 2.17688 9.2313 2.24525 9.48715C2.31361 9.74299 2.48029 9.96147 2.70898 10.095L4.08098 10.888C3.97312 11.6254 3.97312 12.3746 4.08098 13.112L2.70898 13.905C2.23298 14.18 2.06798 14.795 2.34398 15.271ZM12 8C14.206 8 16 9.794 16 12C16 14.206 14.206 16 12 16C9.79398 16 7.99998 14.206 7.99998 12C7.99998 9.794 9.79398 8 12 8Z" fill="black"/>
</svg>
